<svg width="196" height="185" viewBox="0 0 196 185" fill="none" xmlns="http://www.w3.org/2000/svg">
<path d="M191 92.5C191 140.825 149.362 180 98 180C46.6375 180 5 140.825 5 92.5C5 44.1751 46.6375 5 98 5C149.362 5 191 44.1751 191 92.5Z" stroke="#BD8C2F" stroke-width="10"/>
<path d="M85.4694 59.3176C88.7518 57.3012 65.5221 39.4058 61.4822 35.373C59.9297 33.8234 56.1029 37.2983 51.9788 42.165C42.1217 53.7971 38.8592 70.1376 46.225 83.4873C67.9008 122.772 121.777 155.185 133.696 150.559C147.805 145.083 156.926 129.135 154.653 128.127C152.381 127.119 132.181 106.703 128.899 104.182C125.616 101.662 114.254 118.801 113.244 116.28C112.234 113.76 69.46 80.7417 73.3495 75.9528C77.239 71.1639 82.1869 61.334 85.4694 59.3176Z" stroke="#BD8C2F" stroke-width="10"/>
</svg>
