<svg width="186" height="175" viewBox="0 0 186 175" fill="none" xmlns="http://www.w3.org/2000/svg">
<path d="M93 5C141.893 5 181 42.2193 181 87.5C181 132.781 141.893 170 93 170C44.1074 170 5 132.781 5 87.5C5 42.2193 44.1074 5 93 5Z" stroke="#BD8C2F" stroke-width="10"/>
<path d="M38 115V60C38 46.1929 49.1929 35 63 35H122C135.807 35 147 46.1929 147 60V115C147 128.807 135.807 140 122 140H63C49.1929 140 38 128.807 38 115Z" stroke="#BD8C2F" stroke-width="10"/>
<path d="M93.5 64C105.842 64 116 74.2121 116 87C116 99.7879 105.842 110 93.5 110C81.1581 110 71 99.7879 71 87C71 74.2121 81.1581 64 93.5 64Z" stroke="#BD8C2F" stroke-width="10"/>
<circle cx="125" cy="56" r="7" fill="#BD8C2F"/>
</svg>
