<svg width="95" height="95" viewBox="0 0 95 95" fill="none" xmlns="http://www.w3.org/2000/svg">
<path fill-rule="evenodd" clip-rule="evenodd" d="M94.165 0H0V94.797H94.165V0ZM92.2691 2.5279H2.52797V92.2691H92.2691V2.5279Z" fill="#BD2F2F"/>
<path d="M30.6462 29.8244C27.8709 32.9817 25.7429 32.6846 21.2482 31.867C18.3879 30.6416 23.6998 32.6846 26.9687 28.5981C28.8132 26.4123 27.3771 24.1052 26.5599 23.288C25.9052 22.6333 23.8577 21.8058 21.6566 22.8794C19.5154 23.9237 20.0222 23.288 17.9791 26.1483C17.179 28.5185 17.5705 29.826 17.9791 31.8688C18.0635 32.2908 18.7906 35.3701 22.4738 36.3638C22.4738 36.3638 26.5599 36.5729 27.7857 35.9552C29.0116 35.3374 31.6117 31.4935 33.0976 29.8244C37.1837 24.1052 37.5923 20.4303 44.9474 17.9743C52.3026 15.5184 55.571 17.9743 55.571 17.9743C59.6571 20.8389 59.2485 20.4303 60.8831 24.9207C61.4902 28.6554 61.3675 30.7236 60.4743 34.3204C58.0448 41.6102 52.0048 43.6808 37.9805 48.4886L37.5923 48.6217C32.8074 50.6229 29.8287 51.0733 29.4203 53.5232C28.1943 57.6111 29.6964 57.9056 29.8287 60.0627L26.9685 57.2024C26.1452 54.9021 26.0016 53.2628 27.7857 49.4389C28.9896 46.9602 30.488 46.3109 36.3665 42.9012C46.5817 39.2237 50.2592 37.1807 54.3454 31.867C54.8209 30.7812 55.1624 31.0519 55.1624 29.0088C55.1624 26.9658 54.3454 26.1483 54.3454 26.1483C52.7108 24.1052 51.1483 23.4294 49.4419 23.287C48.2159 22.8805 46.1731 23.6992 44.13 25.3336C42.087 26.968 35.1407 40.8581 29.0116 41.6754C22.8824 42.4926 20.4308 41.6754 20.4308 41.6754C19.2048 41.2667 15.6961 40.9015 13.076 35.1375C11.8501 31.867 11.85 26.9655 13.4846 23.287C18.7965 15.1154 29.8292 17.9745 30.6462 22.0608C31.4632 26.147 30.6462 29.8244 30.6462 29.8244Z" fill="#BD2F2F"/>
<path d="M63.3016 66.196C66.0769 63.0387 68.2049 63.3358 72.6996 64.1534C75.5598 65.3788 70.2479 63.3358 66.9791 67.4222C65.1346 69.6081 66.5707 71.9152 67.3879 72.7324C68.0425 73.387 70.09 74.2146 72.2912 73.141C74.4324 72.0967 73.9256 72.7324 75.9686 69.8721C76.7688 67.5019 76.3772 66.1944 75.9686 64.1516C75.8842 63.7296 75.1571 60.6503 71.4739 59.6566C71.4739 59.6566 67.3878 59.4474 66.162 60.0652C64.9362 60.683 62.3361 64.5269 60.8501 66.196C56.7641 71.9152 56.3555 75.5901 49.0003 78.046C41.6452 80.502 38.3767 78.046 38.3767 78.046C34.2906 75.1815 34.6992 75.5901 33.0646 71.0997C32.4576 67.365 32.5803 65.2968 33.4734 61.7C35.903 54.4102 41.943 52.3396 55.9672 47.5318L56.3555 47.3987C61.1404 45.3975 64.119 44.9471 64.5274 42.4972C65.7534 38.4093 64.2513 38.1148 64.119 35.9577L66.9793 38.8179C67.8026 41.1183 67.9462 42.7575 66.162 46.5815C64.9582 49.0602 63.4598 49.7094 57.5813 53.1192C47.3661 56.7967 43.6886 58.8397 39.6023 64.1534C39.1268 65.2392 38.7853 64.9685 38.7853 67.0116C38.7853 69.0546 39.6023 69.8721 39.6023 69.8721C41.237 71.9152 42.7994 72.591 44.5058 72.7334C45.7319 73.1399 47.7747 72.3212 49.8177 70.6868C51.8608 69.0523 58.8071 55.1622 64.9362 54.345C71.0653 53.5278 73.517 54.345 73.517 54.345C74.743 54.7536 78.2517 55.1189 80.8717 60.8829C82.0976 64.1534 82.0977 69.0549 80.4632 72.7334C75.1512 80.905 64.1186 78.0459 63.3016 73.9596C62.4846 69.8734 63.3016 66.196 63.3016 66.196Z" fill="#BD2F2F"/>
<path d="M20.8802 50.0634C23.3318 45.1601 18.4285 43.5292 18.4285 43.5292C18.4285 43.5292 23.2144 42.1414 25.3749 46.3895C25.7835 48.4329 25.7196 49.7842 25.3749 51.7017C25.3395 51.221 25.0924 53.8309 20.0629 63.96C15.0334 74.089 24.5576 76.2143 27.4179 70.9024C30.2781 65.5905 26.8898 60.6875 26.8898 60.6875C26.8898 60.6875 32.7298 61.0958 30.5673 72.1282C28.7534 78.5201 26.09 79.4272 18.4285 78.257C13.0366 76.0041 10.5635 71.1672 13.5252 62.3213C16.7555 56.1946 18.4285 54.9667 20.8802 50.0634Z" fill="#BD2F2F"/>
<path d="M73.0935 45.7919C70.6418 50.6952 75.5451 52.3261 75.5451 52.3261C75.5451 52.3261 70.7592 53.714 68.5988 49.4658C68.1902 47.4225 68.254 46.0711 68.5988 44.1536C68.6342 44.6343 68.8812 42.0244 73.9107 31.8954C78.9402 21.7663 69.416 19.641 66.5557 24.9529C63.6955 30.2648 67.0838 35.1678 67.0838 35.1678C67.0838 35.1678 61.2438 34.7595 63.4063 23.7271C65.2203 17.3353 67.8837 16.4281 75.5451 17.5983C80.9371 19.8513 83.4101 24.6881 80.4484 33.534C77.2181 39.6607 75.5451 40.8886 73.0935 45.7919Z" fill="#BD2F2F"/>
</svg>
